<svg width="100" height="100" viewBox="0 0 100 100" fill="none" xmlns="http://www.w3.org/2000/svg">
<path d="M81.7111 70.4174C87.2532 70.4174 91.7459 65.9246 91.7459 60.3825C91.7459 54.8404 87.2532 50.3477 81.7111 50.3477C76.169 50.3477 71.6763 54.8404 71.6763 60.3825C71.6763 65.9246 76.169 70.4174 81.7111 70.4174Z" stroke="#7A7A7A" stroke-width="1.6933" stroke-miterlimit="22.9256"/>
<path d="M29.4287 62.4877H71.5859" stroke="#7A7A7A" stroke-width="1.6933" stroke-miterlimit="22.9256"/>
<path d="M19.2585 70.4174C24.8006 70.4174 29.2933 65.9246 29.2933 60.3825C29.2933 54.8404 24.8006 50.3477 19.2585 50.3477C13.7164 50.3477 9.22363 54.8404 9.22363 60.3825C9.22363 65.9246 13.7164 70.4174 19.2585 70.4174Z" stroke="#7A7A7A" stroke-width="1.6933" stroke-miterlimit="22.9256"/>
<path d="M72.5063 49.1712L53.8618 35.483" stroke="#7A7A7A" stroke-width="1.6933" stroke-miterlimit="22.9256"/>
<path d="M59.2898 29.5827L49.8496 40.439" stroke="#7A7A7A" stroke-width="1.6933" stroke-miterlimit="22.9256"/>
<path d="M52.3768 56.5803L33.4964 56.3443L18.6279 29.6758" stroke="#7A7A7A" stroke-width="1.6933" stroke-miterlimit="22.9256"/>
<path d="M76.2031 45.1023C81.787 45.6147 87.3708 46.127 92.9546 46.6393L98.3336 56.0138L95.1816 59.3952" stroke="#7A7A7A" stroke-width="1.6933" stroke-miterlimit="22.9256"/>
<path d="M19.9552 44.4877L4.89416 45.1023L1.66699 61.7002L5.50816 62.3152" stroke="#7A7A7A" stroke-width="1.6933" stroke-miterlimit="22.9256"/>
</svg>
