<svg width="35" height="35" viewBox="0 0 35 35" fill="none" xmlns="http://www.w3.org/2000/svg">
<path d="M27.7082 2.91667C27.7082 1.30667 26.4015 0 24.7915 0H10.2082C8.59817 0 7.2915 1.30667 7.2915 2.91667V32.0833C7.2915 33.6933 8.59817 35 10.2082 35H24.7915C26.4015 35 27.7082 33.6933 27.7082 32.0833V2.91667ZM15.3123 2.91667H19.6873C20.0898 2.91667 20.4165 3.24333 20.4165 3.64583C20.4165 4.04833 20.0898 4.375 19.6873 4.375H15.3123C14.9098 4.375 14.5832 4.04833 14.5832 3.64583C14.5832 3.24333 14.9098 2.91667 15.3123 2.91667ZM17.4998 32.0833C16.6934 32.0833 16.0415 31.43 16.0415 30.625C16.0415 29.82 16.6934 29.1667 17.4998 29.1667C18.3048 29.1667 18.9567 29.82 18.9567 30.625C18.9567 31.43 18.3048 32.0833 17.4998 32.0833ZM24.7915 27.7083H10.2082V7.25667H24.7915V27.7083Z" fill="#7A7A7A"/>
</svg>
