<svg width="35" height="35" viewBox="0 0 35 35" fill="none" xmlns="http://www.w3.org/2000/svg">
<path fill-rule="evenodd" clip-rule="evenodd" d="M17.5 0C7.83708 0 0 7.83417 0 17.5C0 27.1644 7.83708 35 17.5 35C27.1644 35 35 27.1644 35 17.5C35 7.83417 27.1644 0 17.5 0ZM22.2017 26.0619C22.4758 26.2558 22.8288 26.304 23.1438 26.1858C23.4573 26.0662 23.6892 25.7965 23.7592 25.4698C24.4985 21.996 26.2923 13.2023 26.9646 10.0435C27.0156 9.80438 26.931 9.55646 26.7444 9.3975C26.5563 9.23854 26.2967 9.19333 26.0663 9.27792C22.4992 10.5992 11.5135 14.7204 7.02333 16.3815C6.73896 16.4879 6.55375 16.7606 6.5625 17.0625C6.57271 17.3629 6.77542 17.624 7.06708 17.7115C9.08104 18.3138 11.7235 19.1523 11.7235 19.1523C11.7235 19.1523 12.9587 22.8827 13.6019 24.7785C13.6835 25.0177 13.8702 25.2044 14.1152 25.2685C14.3617 25.3327 14.6227 25.2656 14.8065 25.0921C15.8404 24.1165 17.4388 22.6071 17.4388 22.6071C17.4388 22.6071 20.4779 24.834 22.2017 26.0619ZM12.8348 18.6798L14.264 23.3917L14.5819 20.4079C14.5819 20.4079 20.0987 15.4306 23.2458 12.5942C23.3377 12.511 23.3494 12.371 23.2735 12.2733C23.1977 12.1756 23.0577 12.1523 22.9542 12.2194C19.3083 14.5469 12.8348 18.6798 12.8348 18.6798Z" fill="#7A7A7A"/>
</svg>
