<svg width="36" height="35" viewBox="0 0 36 35" fill="none" xmlns="http://www.w3.org/2000/svg">
<g clip-path="url(#clip0)">
<path fill-rule="evenodd" clip-rule="evenodd" d="M19.338 20.0448C19.338 20.0448 19.9785 20.1002 20.322 19.6846L20.994 18.8635C21.318 18.4552 22.101 18.1956 22.8675 18.6098C23.8815 19.1669 25.1925 20.0419 26.091 20.8571C26.586 21.2625 26.7015 21.8604 26.364 22.4919L26.361 22.505C26.013 23.1 25.5495 23.6585 24.963 24.1792L24.9495 24.1879C24.2895 24.7231 23.5305 25.0337 22.719 24.7771L22.704 24.7567C21.246 24.3556 17.748 22.6217 15.519 20.8935C11.8725 18.0964 9.28051 13.4823 8.56351 11.0089L8.54101 10.9944C8.27701 10.2025 8.59951 9.46457 9.14701 8.82436L9.15751 8.8127C9.69301 8.24249 10.266 7.7904 10.8795 7.45353L10.893 7.45061C11.541 7.12249 12.156 7.23332 12.5745 7.71603C13.125 8.26874 14.1585 9.59874 14.8845 10.85C15.3105 11.5937 15.0435 12.3564 14.625 12.67L13.779 13.3233C13.353 13.6587 13.4085 14.2814 13.4085 14.2814C13.4085 14.2814 14.6595 18.8839 19.338 20.0448ZM26.6985 16.2298C26.448 16.2298 26.244 16.0329 26.2425 15.7894C26.2215 13.1206 25.3965 10.9944 23.7915 9.47186C22.1835 7.9479 20.151 7.16624 17.751 7.1502C17.499 7.14874 17.2965 6.94895 17.2995 6.70395C17.301 6.4604 17.5035 6.26499 17.754 6.26499H17.757C20.4 6.28249 22.644 7.14874 24.4275 8.83749C26.2125 10.5321 27.1305 12.8698 27.153 15.7835C27.1545 16.0271 26.9535 16.2269 26.7015 16.2298H26.6985ZM24.306 15.3198H24.2955C24.0435 15.3139 23.844 15.1112 23.85 14.8677C23.886 13.3539 23.4405 12.1289 22.491 11.1212C21.546 10.1164 20.2485 9.56811 18.5235 9.44561C18.273 9.42665 18.084 9.2152 18.102 8.97165C18.1215 8.72811 18.339 8.54436 18.5895 8.56186C20.5305 8.7004 22.0695 9.36103 23.163 10.5233C24.2625 11.69 24.801 13.1585 24.7605 14.8867C24.7545 15.1273 24.552 15.3198 24.306 15.3198ZM21.969 14.5585C21.7275 14.5585 21.5265 14.3748 21.5145 14.1371C21.438 12.635 20.709 11.9 19.224 11.8212C18.972 11.8081 18.78 11.5996 18.7935 11.356C18.807 11.111 19.02 10.9244 19.272 10.9375C21.234 11.0396 22.323 12.1319 22.4235 14.0933C22.437 14.3369 22.2435 14.5454 21.9915 14.5571L21.969 14.5585ZM32.1945 19.6175C31.287 26.7298 25.9365 27.1789 24.9495 27.4867C24.5295 27.6179 20.6265 28.5614 15.7215 28.2508C15.7215 28.2508 12.0645 32.5383 10.923 33.6539C10.7445 33.8275 10.536 33.8975 10.395 33.8654C10.1985 33.8187 10.1445 33.5912 10.1475 33.2617L10.1775 27.405V27.4035C3.03451 25.4742 3.45001 18.2233 3.53101 14.4273C3.61201 10.6312 4.34551 7.52061 6.52501 5.42936C10.44 1.98186 18.5055 2.49665 18.5055 2.49665C25.317 2.52582 28.581 4.51936 29.3385 5.18728C31.851 7.27853 33.1305 12.285 32.1945 19.6175ZM31.2165 3.41103C30.321 2.61186 26.706 0.0597797 18.654 0.0247797C18.654 0.0247797 9.15901 -0.532304 4.53001 3.5977C1.95301 6.10311 1.04701 9.7679 0.951011 14.3135C0.856511 18.8606 0.732011 27.3773 9.17701 29.6873L9.18601 29.6902L9.18001 33.2135C9.18001 33.2135 9.12751 34.6412 10.0935 34.9329C11.262 35.2844 11.9475 34.2008 13.065 33.0312C13.677 32.3896 14.5215 31.4475 15.1605 30.7271C20.937 31.1967 25.3785 30.1189 25.884 29.96C27.0495 29.591 33.6495 28.77 34.7235 20.2519C35.8305 11.4698 34.1865 5.91645 31.2165 3.41103Z" fill="#7A7A7A"/>
</g>
<defs>
<clipPath id="clip0">
<rect width="36" height="35" fill="white"/>
</clipPath>
</defs>
</svg>
