
<svg viewBox="0 0 80 139.7" xml:space="preserve">
<path d="M6.2 0l2.1 3.2c7.4 9.8 15.8 21.5 23.2 31.7l6.3 8.8c.4.7 1.8 2.5 2.1 2.8l-28.1-8.1c.4 1.1 27.8 38.3 30.6 41.9 1.1 1.4 3.5 4.9 4.2 6l-28.8-7.7c.4 1.1 5.6 6.3 7.4 8.1.7.7.7 1.1 1.4 1.8l6 6.3c.7.7 1.1.7 1.4 1.4.4.7.7 1.1 1.4 1.4l2.8 3.2c1.1 1.1 2.1 2.5 2.8 3.2-6 1.1-14.8-2.5-19.3-4.9-4.6-2.5-9.8-7.4-12.7-11.6C3.4 78.7.9 69.6 3 58.7c1.1-5.3 2.5-6.3 2.8-9.1C3 52.4.6 61.6.2 65.1c-.7 6.3.4 13 2.5 18.6 6.7 16.9 22.9 27.1 40.8 25.7.7 0 1.4-.4 2.1 0l10.2 10.9c1.1 1.1 1.4 1.8 2.5 2.8l15.5 16.5c-1.1-1.8-27.4-37.6-31.3-43.3-.4-.7-1.8-2.1-1.8-2.8l27.8 8.1c-.4-.7-.7-1.1-1.1-1.8L46.6 71.4c-1.4-2.1-2.8-3.9-4.2-6-1.4-1.8-8.1-10.9-8.4-12l28.8 7.7-4.2-4.9c-.7-.7-1.1-.7-1.4-1.4-.4-.7-1.1-1.1-1.4-1.8l-4.9-4.2C49.8 47.5 40 37.3 39.6 36.2c15.5-.4 26 8.4 31.7 16.5 5.6 8.1 7.7 18.6 5.6 29.2-1.1 4.9-2.5 6.3-2.8 8.8 2.8-3.5 4.9-10.6 5.6-15.8 2.1-17.2-7.7-34.1-22.9-40.8-6-2.8-13.4-4.2-20.8-3.5-2.5.4-1.4.4-3.2-1.8L18.9 13.4c-1.1-1.1-1.8-1.8-2.5-2.8L6.2 0z" fill-rule="evenodd" clip-rule="evenodd" fill="#0d871d"></path>
</svg>
