<?xml version="1.0" encoding="utf-8"?>
<!-- Generator: Adobe Illustrator 24.0.3, SVG Export Plug-In . SVG Version: 6.00 Build 0)  -->
<svg version="1.1" id="Слой_1" xmlns="http://www.w3.org/2000/svg" xmlns:xlink="http://www.w3.org/1999/xlink" x="0px" y="0px"
	 viewBox="0 0 252.1 56.2" style="enable-background:new 0 0 252.1 56.2;" xml:space="preserve">
<style type="text/css">
	.st0{fill:#7A7A7A;}
	.st1{fill-rule:evenodd;clip-rule:evenodd;fill:#0D871D;stroke:#0D871D;stroke-width:0.4799;stroke-miterlimit:10;}
</style>
<g id="Слой_x0020_1">
	<path class="st0" d="M0,46.1h31.6v-2.5H2.7V25.1h25.7v-2.5H2.7V4.4h28.5V1.9H0C0,1.9,0,46.1,0,46.1z M55.7,46.8
		c6,0,9.9-2.7,13.1-6.3L67,38.9c-2.7,3.1-6.3,5.5-11.1,5.5c-7.6,0-13.7-6.4-13.7-14.4v-0.1c0-7.8,5.9-14.2,13.5-14.2
		c5,0,8.3,2.4,11,5.3l1.8-1.8c-3-3.2-6.9-5.9-12.8-5.9c-9.2,0-16.3,7.8-16.3,16.8v0.1C39.3,39.2,46.5,46.8,55.7,46.8z M130.6,46.1
		h2.7V4.4h15.6V1.9H115v2.5h15.6V46.1z M163.9,46.8c6.1,0,10.1-2.6,13.2-6.3l-1.8-1.6c-2.6,3.1-6.2,5.5-11.2,5.5
		c-6.8,0-12.7-5-13.2-13.4h27.2v-1c0-9-5.3-16.8-14.7-16.8c-8.7,0-15.2,7.3-15.2,16.7v0.1C148.1,40.2,155.4,46.8,163.9,46.8
		L163.9,46.8z M150.9,28.8c0.5-7.5,5.6-13.1,12.4-13.1c7.6,0,11.5,6.3,12,13.1H150.9z M202,46.8c6,0,9.9-2.7,13.1-6.3l-1.8-1.6
		c-2.7,3.1-6.3,5.5-11.1,5.5c-7.6,0-13.7-6.4-13.7-14.4v-0.1c0-7.8,5.9-14.2,13.5-14.2c5,0,8.3,2.4,11,5.3l1.8-1.8
		c-3-3.2-6.9-5.9-12.8-5.9c-9.2,0-16.3,7.8-16.3,16.8v0.1C185.7,39.2,192.9,46.8,202,46.8L202,46.8z M224.6,46.1h2.5V27.8
		c0-7,5-12.1,11.6-12.1c6.9,0,10.7,4.7,10.7,11.7v18.7h2.6V27c0-8-4.7-13.7-13-13.7c-6.3,0-10.2,3.7-12,7.6V0h-2.5L224.6,46.1
		L224.6,46.1z"/>
	<path class="st1" d="M77.9,1.1c2.9,4.5,6.9,9.6,10.2,14l2.6,3.6c0.2,0.3,0.7,1,0.8,1.2l-11.7-3.4C80,17,91.6,32.7,92.6,34.2
		c0.4,0.6,1.5,2,1.8,2.6l-12.2-3.3c0.2,0.5,2.4,2.7,3.1,3.4c0.2,0.2,0.4,0.4,0.6,0.7l2.4,2.6c0.3,0.3,0.4,0.4,0.6,0.7
		c0.2,0.2,0.3,0.4,0.6,0.6l1.2,1.3c0.5,0.5,0.8,1,1.2,1.3c-2.5,0.4-6.3-1.1-8-2.1c-2-1.1-4.1-3.1-5.2-4.8c-2.3-3.7-3.4-7.6-2.5-12.2
		c0.5-2.2,1-2.7,1.2-3.8c-1.2,1.3-2.2,5.2-2.3,6.7c-0.3,2.7,0.1,5.5,1,7.8c2.8,7.1,9.6,11.4,17.1,10.7c0.3,0,0.6-0.1,0.8,0
		c3.1,3.3,6.1,6.5,9.3,9.7c-0.5-0.7-8.9-12.7-10.6-15c-0.2-0.3-0.7-0.9-0.8-1.2l11.7,3.4c-0.1-0.3-0.2-0.4-0.5-0.7l-8.7-11.9
		c-0.6-0.9-1.2-1.6-1.8-2.5c-0.5-0.7-3.4-4.6-3.6-5l12.1,3.3l-1.8-2.1c-0.3-0.3-0.4-0.3-0.6-0.6c-0.2-0.2-0.4-0.5-0.6-0.7l-1.8-2
		c-0.5-0.6-4.6-4.9-4.8-5.3c6.5-0.1,11,3.5,13.3,7c2.4,3.4,3.3,7.9,2.4,12.2c-0.4,2.1-1,2.7-1.2,3.7c1.1-1.4,2.1-4.4,2.4-6.6
		c0.9-7.2-3.2-14.3-9.5-17.2c-2.5-1.1-5.7-1.8-8.7-1.5c-1,0.1-0.6,0.2-1.3-0.7C85.2,8.9,81.6,5,77.9,1.1z"/>
</g>
</svg>
