<svg width="15" height="15" viewBox="0 0 15 15" fill="none" xmlns="http://www.w3.org/2000/svg">
<path d="M13.7092 3.59204L7.50072 9.802L1.29226 3.5913C1.22198 3.52092 1.13852 3.46509 1.04665 3.42699C0.954783 3.3889 0.856304 3.36929 0.756849 3.36929C0.657394 3.36929 0.558914 3.3889 0.467043 3.42699C0.375173 3.46509 0.291713 3.52092 0.221439 3.5913C-0.0738131 3.8873 -0.0738131 4.36686 0.221439 4.66286L6.96496 11.4086C7.26022 11.7046 7.73978 11.7046 8.03504 11.4086L14.7786 4.66292C15.0738 4.36693 15.0738 3.88661 14.7786 3.59061C14.4841 3.29604 14.0044 3.29604 13.7092 3.59204Z" fill="#C6C6C6"/>
</svg>
