<svg width="100" height="100" viewBox="0 0 100 100" fill="none" xmlns="http://www.w3.org/2000/svg">
<path fill-rule="evenodd" clip-rule="evenodd" d="M92.0313 35.437C95.5112 35.437 98.333 39.049 98.333 43.5028L98.3328 60.3782C98.333 64.8318 95.5112 68.4438 92.0315 68.4438L92.0313 68.444C88.552 68.4438 85.7302 64.8318 85.7302 60.378L85.73 43.5028C85.7301 39.049 88.552 35.437 92.0315 35.437H92.0313Z" stroke="#7A7A7A" stroke-width="1.6933" stroke-miterlimit="22.9256"/>
<path d="M50.0918 47.0409V55.4291C59.2736 56.5444 70.365 57.7236 81.9615 56.9648V47.3791" stroke="#7A7A7A" stroke-width="1.6933" stroke-miterlimit="22.9256"/>
<path d="M81.9593 47.3793H18.1948" stroke="#7A7A7A" stroke-width="1.6933" stroke-miterlimit="22.9256"/>
<path d="M81.952 47.696C81.792 40.1045 83.1137 32.6142 92.2106 31.7219" stroke="#7A7A7A" stroke-width="1.6933" stroke-miterlimit="22.9256"/>
<path fill-rule="evenodd" clip-rule="evenodd" d="M7.96817 35.437C4.48834 35.437 1.6665 39.049 1.6665 43.5028L1.66667 60.3782C1.6665 64.8318 4.48834 68.4438 7.968 68.4438L7.96817 68.444C11.4475 68.4438 14.2693 64.8318 14.2693 60.378L14.2695 43.5028C14.2693 39.049 11.4475 35.437 7.968 35.437H7.96817Z" stroke="#7A7A7A" stroke-width="1.6933" stroke-miterlimit="22.9256"/>
<path d="M49.906 47.0409V55.4291C40.7241 56.5444 29.6328 57.7236 18.0363 56.9648L18.0361 47.3791" stroke="#7A7A7A" stroke-width="1.6933" stroke-miterlimit="22.9256"/>
<path d="M18.05 47.833C18.21 40.2417 17.1088 32.6042 7.7915 31.8588" stroke="#7A7A7A" stroke-width="1.6933" stroke-miterlimit="22.9256"/>
</svg>
