<svg width="100" height="100" viewBox="0 0 100 100" fill="none" xmlns="http://www.w3.org/2000/svg">
<path fill-rule="evenodd" clip-rule="evenodd" d="M88.1043 63.5865C91.2589 63.5865 93.8171 67.3888 93.8171 72.0775L93.8169 89.8423C93.8171 94.5308 91.2589 98.3332 88.1044 98.3332L88.1043 98.3333C84.9499 98.3332 82.3918 94.5308 82.3918 89.8422L82.3916 72.0775C82.3918 67.3888 84.9499 63.5865 88.1044 63.5865H88.1043Z" stroke="#7A7A7A" stroke-width="1.6933" stroke-miterlimit="22.9256"/>
<path d="M78.9653 76.6669C78.8203 68.6752 79.4854 61.5637 88.2651 59.8505" stroke="#7A7A7A" stroke-width="1.6933" stroke-miterlimit="22.9256"/>
<path fill-rule="evenodd" clip-rule="evenodd" d="M11.8959 63.5865C8.74127 63.5865 6.18311 67.3888 6.18311 72.0775L6.18327 89.8423C6.18311 94.5308 8.74127 98.3332 11.8958 98.3332L11.8959 98.3333C15.0503 98.3332 17.6084 94.5308 17.6084 89.8422L17.6086 72.0775C17.6084 67.3888 15.0503 63.5865 11.8958 63.5865H11.8959Z" stroke="#7A7A7A" stroke-width="1.6933" stroke-miterlimit="22.9256"/>
<path d="M21.0349 76.8111C21.1799 68.8196 20.5147 61.708 11.7349 59.9948" stroke="#7A7A7A" stroke-width="1.6933" stroke-miterlimit="22.9256"/>
<path d="M54.4442 76.776L78.9355 76.8112V83.4162C78.9355 84.6079 77.9605 85.583 76.7688 85.583H23.202C22.0102 85.583 21.0352 84.6079 21.0352 83.4162V76.8112L45.5265 76.776" stroke="#7A7A7A" stroke-width="1.6933" stroke-miterlimit="22.9256"/>
<path d="M45.5264 78.1888V71.1812C45.5264 69.9895 46.5014 69.0145 47.693 69.0145H52.2774C53.469 69.0145 54.444 69.9895 54.444 71.1812V78.1888" stroke="#7A7A7A" stroke-width="1.6933" stroke-miterlimit="22.9256"/>
<path d="M49.9854 73.402L50.0144 4.095" stroke="#7A7A7A" stroke-width="1.6933" stroke-miterlimit="22.9256"/>
<path d="M72.8335 1.66667L57.3475 1.69801V3.83917C57.3475 4.20334 55.6633 4.50117 53.605 4.50117H45.6863C43.628 4.50117 41.9437 4.20334 41.9437 3.83917V1.69801L27.1948 1.69867" stroke="#7A7A7A" stroke-width="1.6933" stroke-miterlimit="22.9256"/>
</svg>
