<?xml version="1.0" encoding="utf-8"?>
<!-- Generator: Adobe Illustrator 24.0.3, SVG Export Plug-In . SVG Version: 6.00 Build 0)  -->
<svg version="1.1" id="Слой_1" xmlns="http://www.w3.org/2000/svg" xmlns:xlink="http://www.w3.org/1999/xlink" x="0px" y="0px"
	 viewBox="0 0 98.5 62.5" style="enable-background:new 0 0 98.5 62.5;" xml:space="preserve">
<style type="text/css">
	.st0{fill:none;stroke:#7A7A7A;stroke-width:1.6933;stroke-miterlimit:22.9256;}
</style>
<g>
	<path class="st0" d="M18.8,61.7c9.9,0,17.9-8,17.9-17.9c0-9.9-8-17.9-17.9-17.9c-9.9,0-17.9,8-17.9,17.9
		C0.8,53.7,8.9,61.7,18.8,61.7z"/>
	<path class="st0" d="M79.7,61.7c9.9,0,17.9-8,17.9-17.9c0-9.9-8-17.9-17.9-17.9s-17.9,8-17.9,17.9C61.8,53.7,69.8,61.7,79.7,61.7z"
		/>
	<path class="st0" d="M79.7,43.8l-13-33.1l4-7.4L66,0.7"/>
	<path class="st0" d="M46.3,43.8l21.5-30.2"/>
	<path class="st0" d="M40.1,14.4l-15.4,0.2"/>
	<path class="st0" d="M46.3,43.8l7.2,7"/>
	<path class="st0" d="M49.3,50.7h7"/>
	<path class="st0" d="M52.7,34.8L32.1,15"/>
	<path class="st0" d="M67.2,14.4L38.4,21"/>
	<path class="st0" d="M46.3,43.8l-27.5,0"/>
</g>
</svg>
