<svg width="100" height="100" viewBox="0 0 100 100" fill="none" xmlns="http://www.w3.org/2000/svg">
<path d="M73.5707 78.8802H23.2681L10.4326 85.7473" stroke="#7A7A7A" stroke-width="1.6933" stroke-miterlimit="22.9256"/>
<path d="M89.5671 94.5672C94.4382 94.5672 98.3871 90.6184 98.3871 85.7472C98.3871 80.8761 94.4382 76.9272 89.5671 76.9272C84.6959 76.9272 80.7471 80.8761 80.7471 85.7472C80.7471 90.6184 84.6959 94.5672 89.5671 94.5672Z" stroke="#7A7A7A" stroke-width="1.6933" stroke-miterlimit="22.9256"/>
<path d="M10.4328 94.5672C15.3039 94.5672 19.2528 90.6184 19.2528 85.7472C19.2528 80.8761 15.3039 76.9272 10.4328 76.9272C5.56164 76.9272 1.61279 80.8761 1.61279 85.7472C1.61279 90.6184 5.56164 94.5672 10.4328 94.5672Z" stroke="#7A7A7A" stroke-width="1.6933" stroke-miterlimit="22.9256"/>
<path d="M89.5669 85.7473L77.0708 78.2319L87.1834 70.8421" stroke="#7A7A7A" stroke-width="1.6933" stroke-miterlimit="22.9256"/>
<path d="M84.9763 67.989L80.5723 55.9513" stroke="#7A7A7A" stroke-width="1.6933" stroke-miterlimit="22.9256"/>
<path d="M80.5721 55.9511L65.1426 7.76823L71.5319 5.43291L73.8079 7.51339" stroke="#7A7A7A" stroke-width="1.6933" stroke-miterlimit="22.9256"/>
<path d="M69.1597 29.0277L65.1406 34.4727L72.4008 54.6976L76.9384 55.605" stroke="#7A7A7A" stroke-width="1.6933" stroke-miterlimit="22.9256"/>
</svg>
